<svg xmlns="http://www.w3.org/2000/svg" viewBox="0 0 392.86 111.81"><defs><style>.cls-1{fill:#3f3f41;}</style></defs><title>Asset 1</title><g data-name="Layer 2"><g data-name="Main Logo"><path class="cls-1" d="M392.34,94.85A136.59,136.59,0,0,1,368.88,87c-11.63-5.11-33.24-14.6-48.58-36.9a88.07,88.07,0,0,1-5.9-9.91L357,35.67c2.18-.23,3.63-1.47,3.25-2.78l-.43-1.42c-.38-1.3-2.46-2.17-4.64-1.94L311.6,34.16c-.83-2-1.64-4.07-2.4-6.32l63.94-7.26c2-.24,3.4-1.48,3-2.79l-.4-1.41c-.36-1.31-2.31-2.18-4.35-1.95l-64.08,7.28q-.66-2.48-1.22-5.13c3.09-.33,6.91-.77,6.91-.77L385.8,6.18c1.76-.23,2.92-1.48,2.61-2.78L388.07,2c-.31-1.3-2-2.17-3.73-1.94l-81.6,10.79-.42,0H285.74c-1.69,0-3.06.83-3.06,1.86a87.5,87.5,0,0,1-13,32.93c-.5.76-1.27,1.94-2.3,3.42C245,81.07,214.25,87.8,203,89.21v0c-2.12.23-4.28.38-6.5.41h-.12c-2.22,0-4.38-.18-6.5-.41v0c-11.27-1.41-42-8.14-64.44-40.19-1-1.48-1.8-2.66-2.3-3.42a87.33,87.33,0,0,1-13-32.93c0-1-1.37-1.86-3.07-1.86H90.54l-.42,0L8.52,0C6.77-.19,5.1.68,4.79,2L4.45,3.4C4.14,4.7,5.3,6,7.06,6.18l72.76,9.63s3.82.44,6.91.77q-.56,2.66-1.22,5.13L21.43,14.43c-2.05-.23-4,.64-4.36,1.95l-.39,1.41c-.36,1.31,1,2.55,3,2.79l63.94,7.26c-.76,2.25-1.57,4.35-2.4,6.32L37.68,29.53c-2.18-.23-4.26.64-4.65,1.94l-.42,1.42c-.38,1.31,1.07,2.55,3.25,2.78l42.6,4.53a88.07,88.07,0,0,1-5.9,9.91C57.22,72.41,35.61,81.9,24,87A136.59,136.59,0,0,1,.52,94.85c-.46.41-.55.69-.51.89.15.75,2.29.93,3.57,1h83.9v13.22c0,1,1.37,1.87,3.06,1.87h16.57c1.7,0,3.07-.84,3.07-1.87V96.72h172.5v13.22c0,1,1.37,1.87,3.06,1.87h16.58c1.69,0,3.06-.84,3.06-1.87V96.72h83.9c1.27,0,3.42-.23,3.57-1C392.89,95.54,392.8,95.26,392.34,94.85ZM52.79,93h-34a108.75,108.75,0,0,0,19.6-7.83,107.85,107.85,0,0,0,14.53-9Q52.88,84.57,52.79,93Zm17.35,0H58.91Q59,82.64,59,72.28a67.07,67.07,0,0,0,5.06-4.41,66,66,0,0,0,6.25-7Zm17.34,0H76.26q0-19.18.07-38.37c1.8-2.65,3.63-5.5,5.43-8.56,2.25-3.79,4.21-7.46,5.92-11Zm16.57,15.09H93.6V14.54h10.45ZM110.18,93,110,33.4a82.14,82.14,0,0,0,6.13,13.12,83.1,83.1,0,0,0,5.27,8q0,19.25.05,38.49Zm28.56,0H127.52l0-32.11a59.7,59.7,0,0,0,11.28,11Zm6.13,0q0-8.64,0-17.27a78.1,78.1,0,0,0,12.63,8.46,79.68,79.68,0,0,0,30.79,9.08Zm59.66.27a79.68,79.68,0,0,0,30.79-9.08A78.1,78.1,0,0,0,248,75.72q0,8.64,0,17.27ZM265.34,93H254.12l0-21.07a58.53,58.53,0,0,0,5.65-4.79,59.63,59.63,0,0,0,5.64-6.25Zm17.34,0H271.46q0-19.24,0-38.49a81.25,81.25,0,0,0,5.28-8,82.14,82.14,0,0,0,6.13-13.12Zm16.58,15.09H288.8V14.54h10.46ZM305.38,93l-.2-57.88c1.71,3.49,3.67,7.16,5.92,11,1.8,3.06,3.62,5.91,5.42,8.56q0,19.18.08,38.37Zm17.34,0-.21-32.11a66,66,0,0,0,6.25,7,65.16,65.16,0,0,0,5.06,4.41L333.94,93Zm17.35,0-.18-16.84a108.65,108.65,0,0,0,14.54,9A108.75,108.75,0,0,0,374,93Z"/></g></g></svg>