<svg xmlns="http://www.w3.org/2000/svg" viewBox="0 0 389.24 167.94"><defs><style>.cls-1{fill:#3f3f41;}</style></defs><title>Asset 1</title><g data-name="Layer 2"><g data-name="H Logo"><path class="cls-1" d="M389.13,7.14l-.65-3A5.19,5.19,0,0,0,382.32.21L246.47,28.3c-.35.05-.68.13-1,.21h-.06A7.32,7.32,0,0,0,242.54,30a5.52,5.52,0,0,0-2.14,4.39V90.69H148.92V34.4a5.66,5.66,0,0,0-2-4.39,6.94,6.94,0,0,0-3.08-1.56l0,0-.5-.1h0L6.92.11A5.21,5.21,0,0,0,.75,4.05L.11,7a5.11,5.11,0,0,0,4,6.05L121.08,37.28s8.56,1.57,13.64,2.45V50.1L32.36,31.48c-3.28-.6-6.49,1.15-7.16,3.91l-.73,3c-.68,2.75,1.44,5.47,4.72,6.07l105.53,19.2V77.07L61.84,64.52c-3.51-.61-6.93,1.14-7.64,3.89l-.78,3c-.71,2.75,1.55,5.48,5.06,6.08l76.24,13.13v71.15a5.7,5.7,0,0,0,1.92,4.49,7.34,7.34,0,0,0,5.07,1.69,7.18,7.18,0,0,0,4.95-1.79,6.41,6.41,0,0,0,2.26-4.39V102.27H240.4v59.49a5.65,5.65,0,0,0,2,4.39,7.22,7.22,0,0,0,5,1.79,7.48,7.48,0,0,0,5-1.69,6.27,6.27,0,0,0,2.25-4.49V90.7l76.17-13.12c3.5-.61,5.77-3.33,5.06-6.08l-.78-3c-.71-2.75-4.14-4.49-7.64-3.89L254.59,77.16V63.73L360.05,44.54c3.28-.59,5.39-3.31,4.72-6.06l-.73-3c-.68-2.75-3.88-4.5-7.16-3.9L254.59,50.18V39.81c5.09-.88,13.57-2.43,13.57-2.44L385.1,13.19A5.12,5.12,0,0,0,389.13,7.14Z"/></g></g></svg>